<svg width="1063" height="479" viewBox="0 0 1063 479" fill="none" xmlns="http://www.w3.org/2000/svg">
<mask id="mask0_33_169" style="mask-type:luminance" maskUnits="userSpaceOnUse" x="0" y="0" width="257" height="479">
<path d="M0.5625 0.0677071H256.563V478.068H0.5625V0.0677071Z" fill="white"/>
</mask>
<g mask="url(#mask0_33_169)">
<path d="M222.26 0.03125V149.318L166.807 10.7448L134.677 23.5573L192.177 167.25L82.7656 57.8385L58.3177 82.2865L163.885 187.802L26.6979 129.021L13.0677 160.797L155.276 221.729H0.5625V256.266H149.797L11.224 311.719L24.0885 343.849L167.729 286.349L58.3177 395.76L82.7656 420.208L188.333 314.635L129.552 451.823L161.328 465.458L222.26 323.245V477.964H256.797V0.03125H222.26Z" fill="#FF751F"/>
</g>
<path d="M402.739 373.828C389.955 373.828 379.427 369.942 371.155 362.172C362.883 354.401 358.747 342.118 358.747 325.324V107.996H404.995V316.3C404.995 321.564 406.248 325.324 408.755 327.58C411.261 329.585 414.52 330.588 418.531 330.588C420.536 330.588 422.667 330.462 424.923 330.212C427.179 329.71 429.56 329.084 432.067 328.332V368.188C426.803 370.193 421.539 371.572 416.275 372.324C411.261 373.326 406.749 373.828 402.739 373.828ZM529.571 373.828C514.531 373.828 501.872 370.82 491.595 364.804C481.568 358.788 474.048 350.265 469.035 339.236C464.272 328.206 461.891 315.297 461.891 300.508V184.7H508.515V288.852C508.515 297.374 509.518 305.02 511.523 311.788C513.528 318.305 517.038 323.569 522.051 327.58C527.315 331.34 534.459 333.22 543.483 333.22C554.512 333.22 562.784 330.086 568.299 323.82C574.064 317.553 577.95 308.905 579.955 297.876C582.211 286.596 583.339 273.436 583.339 258.396V184.7H629.963V370.068H583.339V329.836L589.731 333.596C584.216 347.884 576.07 358.161 565.291 364.428C554.512 370.694 542.606 373.828 529.571 373.828ZM676.381 370.068V184.7H723.381V232.828L713.229 240.724C714.984 228.942 717.992 219.166 722.253 211.396C726.515 203.625 731.528 197.609 737.293 193.348C743.309 188.836 749.451 185.702 755.717 183.948C762.235 181.942 768.627 180.94 774.893 180.94C784.669 180.94 793.944 182.82 802.717 186.58C811.491 190.089 819.136 196.23 825.653 205.004C832.171 213.777 836.683 225.809 839.189 241.1L811.365 251.252C815.125 233.705 820.515 219.793 827.533 209.516C834.803 199.238 843.075 191.969 852.349 187.708C861.875 183.196 871.901 180.94 882.429 180.94C898.221 180.94 911.005 184.449 920.781 191.468C930.557 198.486 937.701 207.51 942.213 218.54C946.976 229.318 949.357 240.849 949.357 253.132V370.068H902.733V264.412C902.733 255.137 901.48 247.366 898.973 241.1C896.717 234.582 893.333 229.694 888.821 226.436C884.309 223.177 878.419 221.548 871.149 221.548C863.629 221.548 857.237 223.553 851.973 227.564C846.709 231.574 842.699 237.59 839.941 245.612C837.435 253.633 836.181 263.91 836.181 276.444V370.068H789.557V263.66C789.557 249.622 786.925 239.094 781.661 232.076C776.648 225.057 769.253 221.548 759.477 221.548C751.707 221.548 745.064 223.553 739.549 227.564C734.285 231.574 730.275 237.59 727.517 245.612C724.76 253.633 723.381 263.91 723.381 276.444V370.068H676.381ZM992.888 370.068V184.7H1039.51V370.068H992.888ZM991.384 156.124V107.996H1041.39V156.124H991.384Z" fill="black"/>
</svg>
